<?xml version="1.0" encoding="UTF-8" standalone="no"?>
<svg
   xmlns:dc="http://purl.org/dc/elements/1.1/"
   xmlns:cc="http://web.resource.org/cc/"
   xmlns:rdf="http://www.w3.org/1999/02/22-rdf-syntax-ns#"
   xmlns:svg="http://www.w3.org/2000/svg"
   xmlns="http://www.w3.org/2000/svg"
   xmlns:sodipodi="http://sodipodi.sourceforge.net/DTD/sodipodi-0.dtd"
   xmlns:inkscape="http://www.inkscape.org/namespaces/inkscape"
   width="420"
   height="400"
   id="svg2221"
   sodipodi:version="0.32"
   inkscape:version="0.45pre1"
   sodipodi:docname="Synthese+.svg"
   inkscape:output_extension="org.inkscape.output.svg.inkscape"
   sodipodi:docbase="C:\Users\Monami36\Desktop"
   sodipodi:modified="true">
  <metadata
     id="metadata2244">
    <rdf:RDF>
      <cc:Work
         rdf:about="">
        <dc:format>image/svg+xml</dc:format>
        <dc:type
           rdf:resource="http://purl.org/dc/dcmitype/StillImage" />
      </cc:Work>
    </rdf:RDF>
  </metadata>
  <defs
     id="defs2242" />
  <sodipodi:namedview
     inkscape:window-height="577"
     inkscape:window-width="733"
     inkscape:pageshadow="2"
     inkscape:pageopacity="0.0"
     guidetolerance="10.0"
     gridtolerance="10.0"
     objecttolerance="10.0"
     borderopacity="1.0"
     bordercolor="#666666"
     pagecolor="#ffffff"
     id="base"
     inkscape:zoom="0.9425"
     inkscape:cx="210"
     inkscape:cy="196.34164"
     inkscape:window-x="124"
     inkscape:window-y="296"
     inkscape:current-layer="svg2221" />
  <rect
     fill="#000"
     width="100%"
     height="100%"
     id="rect2223" />
  <g
     id="g4192">
    <path
       d="M 340,144 C 340,72.202983 281.79702,14 210,14 C 138.20298,14 80,72.202983 80,144"
       id="path2227"
       style="fill:#00ff00;fill-opacity:1" />
    <path
       d="M 80,144 C 17.821962,179.89851 -3.481814,259.40526 32.416698,321.5833 C 68.31521,383.76134 147.82196,405.06512 210,369.1666"
       id="path2229"
       style="fill:#0000ff;fill-opacity:1" />
    <path
       d="M 210,369.1666 C 272.17804,405.06512 351.68479,383.76134 387.5833,321.5833 C 423.48181,259.40526 402.17804,179.89851 340,144"
       id="path2231"
       style="fill:#ff0000;fill-opacity:1" />
    <path
       d="M 210,144 C 169.77786,120.77774 120.22214,120.77774 80,144 C 80,190.44453 104.77786,233.36104 145,256.5833"
       id="path2233"
       style="fill:#00ffff;fill-opacity:1" />
    <path
       d="M 145,256.5833 C 145,303.02783 169.77786,345.94434 210,369.1666 C 250.22214,345.94434 275,303.02783 275,256.5833"
       id="path2235"
       style="fill:#ff00ff;fill-opacity:1" />
    <path
       d="M 275,256.5833 C 315.22214,233.36104 340,190.44453 340,144 C 299.77786,120.77774 250.22214,120.77774 210,144"
       id="path2237"
       style="fill:#ffff00;fill-opacity:1" />
    <path
       d="M 210,144 C 169.77786,167.22226 145,210.13878 145,256.5833 C 185.22214,279.80557 234.77786,279.80557 275,256.5833 C 275,210.13878 250.22214,167.22226 210,144"
       id="path2239"
       style="fill:#ffffff" />
  </g>
</svg>
