<?xml version="1.0" standalone="no"?>
<svg xmlns="http://www.w3.org/2000/svg" width="420" height="400">
	<rect id="background" fill="#FFFFFF" width="100%" height="100%"/>
	<g id="synthèse soustractive" transform="translate(210,144) scale(130)">
		<g id="Magenta">
			<path fill="#cc006b" d="
			M 1 0
			A 1 1 0 0 0 -1 0
			"/>
			<path fill="#cc006b" d="
			M 0 0
			A 1 1 0 0 0 -1 0
			  1 1 0 0 0 -0.5 0.866025404
			"/>
			<path fill="#cc006b" d="
			M 0 0
			A 1 1 0 0 0 -0.5 0.866025404
			  1 1 0 0 0 0.5 0.866025404
			  1 1 0 0 0 0 0
			"/>
			<path fill="#cc006b" d="
			M 0.5 0.866025404
			A 1 1 0 0 0 1 0
			  1 1 0 0 0 0 0
			"/>
		</g>
		<g id="Jaune">
			<path fill="#fff10c" d="
			M -1 0
			A 1 1 0 0 0 0 1.732050808
			"/>
			<path fill="#fff10c" d="
			M 0 0
			A 1 1 0 0 0 -1 0
			  1 1 0 0 0 -0.5 0.866025404
			"/>
			<path fill="#fff10c" d="
			M 0 0
			A 1 1 0 0 0 -0.5 0.866025404
			  1 1 0 0 0 0.5 0.866025404
			  1 1 0 0 0 0 0
			"/>
			<path fill="#fff10c" d="
			M -0.5 0.866025404
			A 1 1 0 0 0 0 1.732050808
			  1 1 0 0 0 0.5 0.866025404
			"/>
		</g>
		<g id="Cyan">
			<path fill="#0093d3" d="
			M 0.5 0.866025404
			A 1 1 0 0 0 1 0
			  1 1 0 0 0 0 0
			"/>
			<path fill="#0093d3" d="
			M 0 0
			A 1 1 0 0 0 -0.5 0.866025404
			  1 1 0 0 0 0.5 0.866025404
			  1 1 0 0 0 0 0
			"/>
			<path fill="#0093d3" d="
			M 0 1.732050808
			A 1 1 0 0 0 1 0
			"/>
			<path fill="#0093d3" d="
			M -0.5 0.866025404
			A 1 1 0 0 0 0 1.732050808
			  1 1 0 0 0 0.5 0.866025404
			"/>
		</g>
		<g id="Magenta+Cyan">
			<path fill="#1c1e66" d="
			M 0.5 0.866025404
			A 1 1 0 0 0 1 0
			  1 1 0 0 0 0 0
			"/>
			<path fill="#1c1e66" d="
			M 0 0
			A 1 1 0 0 0 -0.5 0.866025404
			  1 1 0 0 0 0.5 0.866025404
			  1 1 0 0 0 0 0
			"/>
		</g>
		<g id="Jaune+Magenta">
			<path fill="#cc0a21" d="
			M 0 0
			A 1 1 0 0 0 -1 0
			  1 1 0 0 0 -0.5 0.866025404
			"/>
			<path fill="#cc0a21" d="
			M 0 0
			A 1 1 0 0 0 -0.5 0.866025404
			  1 1 0 0 0 0.5 0.866025404
			  1 1 0 0 0 0 0
			"/>
		</g>
		<g id="Cyan+Jaune">
			<path fill="#008c3a" d="
			M -0.5 0.866025404
			A 1 1 0 0 0 0 1.732050808
			  1 1 0 0 0 0.5 0.866025404
			"/>
			<path fill="#008c3a" d="
			M 0 0
			A 1 1 0 0 0 -0.5 0.866025404
			  1 1 0 0 0 0.5 0.866025404
			  1 1 0 0 0 0 0
			"/>
		</g>
		<g id="Cyan+Jaune+Magenta">
			<path fill="#008c3a" d="
			M -0.5 0.866025404
			A 1 1 0 0 0 0 1.732050808
			  1 1 0 0 0 0.5 0.866025404
			"/>
			<path fill="#1c1e66" d="
			M 0.5 0.866025404
			A 1 1 0 0 0 1 0
			  1 1 0 0 0 0 0
			"/>
			<path fill="#cc0a21" d="
			M 0 0
			A 1 1 0 0 0 -1 0
			  1 1 0 0 0 -0.5 0.866025404
			"/>
			<path fill="#212323" d="
			M 0 0
			A 1 1 0 0 0 -0.5 0.866025404
			  1 1 0 0 0 0.5 0.866025404
			  1 1 0 0 0 0 0
			"/>
		</g>
</g>
</svg>
